<svg width="400" height="400" viewBox="0 0 400 400" fill="none" xmlns="http://www.w3.org/2000/svg">
  <!-- Background -->
  <rect width="400" height="400" fill="#0a0a0f"/>
  
  <!-- Base Logo -->
  <circle cx="200" cy="160" r="60" fill="#0052FF"/>
  <path d="M202.5 111C175.5 111 153 133.5 153 160.5C153 187.5 175.5 210 202.5 210C217 217 229 211 237 201V170H209V184H224C219 193 209 199 197 199C180 199 166 185 166 168C166 151 180 137 197 137C207 137 215 141 221 148L233 135C225 126 213 120 197 120L202.5 111Z" fill="white" transform="translate(0, 3)"/>
  
  <!-- Text -->
  <text x="200" y="280" text-anchor="middle" fill="white" font-family="system-ui, -apple-system, sans-serif" font-size="36" font-weight="bold">BaseFair</text>
  <text x="200" y="320" text-anchor="middle" fill="#666" font-family="system-ui, -apple-system, sans-serif" font-size="16">Loading...</text>
  
  <!-- Loading spinner -->
  <circle cx="200" cy="360" r="15" fill="none" stroke="#0052FF" stroke-width="3" stroke-dasharray="60 30">
    <animateTransform attributeName="transform" type="rotate" from="0 200 360" to="360 200 360" dur="1s" repeatCount="indefinite"/>
  </circle>
</svg>

